# xmcd
#
# Track frame offsets:
#	150
#	10699
#	21448
#	36340
#	49494
#	62326
#	72920
#	83612
#	96001
#	110468
#	121730
#	134227
#	146336
#	158218
#	168535
#	180242
#	192039
#	202596
#
# Disc length: 2890 seconds
#
# Revision: 1
# Processed by: cddbd v1.5.2PL0 Copyright (c) Steve Scherf et al.
# Submitted via: audiograbber 1.83.01
#
DISCID=ea0b4812
DTITLE=Various Artist - Country Classics
DYEAR=1900
DGENRE=Country
TTITLE0=Waylon Jennings - Burning Memories
TTITLE1=Patsy Cline - Honky Tonk Merry Go Round
TTITLE2=Tex Ritter  - I Dreamed Of A Hillbilly Heaven
TTITLE3=Slim Whitman - Red Sails In The Sunset
TTITLE4=Lynn Anderson - Rose Garden
TTITLE5=Willie Nelson - Blame It On The Times
TTITLE6=Billie Jo Spears - I'm So Lonesome I Could Cry
TTITLE7=Gene Autry - Deep In The Heart Of texas
TTITLE8=Anne Murray - Both Side Now
TTITLE9=Don Gibson - Sea Of Heartbreak
TTITLE10=The Oakridge Boys - In The Shelter Of His Arms
TTITLE11=Frankie Laine - High Noon
TTITLE12=Dolly Parton - Making Believe
TTITLE13=Dave Dudley - Six Days On The Road
TTITLE14=Barbara Fairchild - You Can't Put The City In The Country Girl
TTITLE15=Roy Drusky - Three Hearts In A Tangle
TTITLE16=Ferlin Husky - Wings Of A Dove
TTITLE17=George Jones - Things Have Gone To Pieces
EXTD=
EXTT0=
EXTT1=
EXTT2=
EXTT3=
EXTT4=
EXTT5=
EXTT6=
EXTT7=
EXTT8=
EXTT9=
EXTT10=
EXTT11=
EXTT12=
EXTT13=
EXTT14=
EXTT15=
EXTT16=
EXTT17=
PLAYORDER=
